<svg width="201" height="396" viewBox="0 0 201 396" fill="none" xmlns="http://www.w3.org/2000/svg">
<path d="M2.5 18.9395V66.4395L4 111.94V218.44V323.44C4 333.94 11 339.44 17 343.94C21.8 347.54 44 345.44 54.5 343.94H91.5C94 346.44 137 349.44 141 345.94C175 327.94 162.5 326.94 171.5 312.94C189 299.44 179.5 293.94 183 281.94C200.5 260.94 191.5 243.44 193 237.44C204 229.44 194 210.94 191.5 203.94C194 193.94 193 197.44 193 181.94C193 146.44 183 151.94 178 141.94C181 106.94 170 109.94 165.5 102.94C162 87.4395 153.5 84.4395 150 78.4395C146 54.9395 136 53.4395 127.5 46.4395C114 26.4395 98.5 25.9395 89 23.4395C74 6.43954 75.5 14.9395 68.5 10.9395C8 -11.5605 2.5 17.9395 2.5 18.9395Z" stroke="black" stroke-width="5"/>
<path d="M140 346.44C137.167 356.44 128.2 377.54 115 381.94C98.5 387.44 77.5 392.94 65.5 392.94C53.5 392.94 45.5 394.94 36 387.44C26.5 379.94 10.5 365.94 10 357.94C9.6 351.54 9.16667 341.273 9 336.94" stroke="black" stroke-width="5"/>
<path d="M155.5 216.94C156.667 223.273 157.1 238.74 149.5 249.94C140 263.94 138 263.94 141 267.94C144 271.94 149.5 281.94 146.5 295.44C143.5 308.94 145.5 315.94 138 320.44C132 324.04 121.833 331.94 117.5 335.44" stroke="black" stroke-width="2"/>
<path d="M174 164.44C175.667 170.44 177.7 184.74 172.5 193.94C166 205.44 169.5 209.94 159.5 214.44C151.5 218.04 142.5 221.94 139 223.44C134.5 228.773 124.5 241.04 120.5 247.44C115.5 255.44 108.5 269.44 101 271.94C93.5 274.44 85.5 283.44 79 289.44C73.8 294.24 66.1667 294.773 63 294.44C60 296.273 53.2 301.14 50 305.94C46.8 310.74 30.3333 311.273 22.5 310.94C17.5 309.94 7.2 306.84 6 302.44" stroke="black" stroke-width="2"/>
<path d="M98 303.44C94.1667 306.773 86.2 315.44 85 323.44C83.8 331.44 75.8333 337.106 72 338.94C69 339.773 61.3 340.94 54.5 338.94C46 336.44 38 335.44 36.5 331.44" stroke="black" stroke-width="2"/>
<path d="M150 160.44C154 167.94 160.6 184.64 155 191.44C148 199.94 147.5 201.94 143 201.94" stroke="black" stroke-width="2"/>
<path d="M132 176.94C132.5 180.44 134.5 188.34 138.5 191.94C143.5 196.44 145 205.94 143.5 209.94C142 213.94 143 221.44 136.5 226.44" stroke="black" stroke-width="2"/>
<path d="M157.5 163.94C157 155.606 152.4 137.44 138 131.44C127 122.94 124.5 119.94 123.5 115.94C122.5 111.94 118.5 103.44 109 100.44C99.5 97.4396 93.5 85.9396 90 80.4396C86.5 74.9396 79.5 65.4396 68.5 65.4396C57.5 65.4396 54.5 66.9396 46.5 60.4396C38.5 53.9396 33.5 51.4396 27 53.9396C20.5 56.4396 10.5 55.9396 8 62.9396C6 68.5396 3.83333 75.2729 3 77.9396" stroke="black" stroke-width="2"/>
<path d="M23 35.4395C25.8333 41.2729 32.5 53.2395 36.5 54.4395" stroke="black" stroke-width="2"/>
<path d="M26 24.9395C18.5 27.2729 3.3 33.8395 2.5 41.4395" stroke="black" stroke-width="2"/>
<path d="M44 22.9395C52.6667 22.1062 72.1 26.1395 80.5 48.9395" stroke="black" stroke-width="2"/>
<path d="M73 36.9395C77.6667 35.4395 90.9 35.3395 106.5 46.9395C112.5 50.4395 127.5 53.4395 129 63.9395C130.5 74.4395 129.5 74.4395 134 78.4395C138.5 82.4395 142 93.4395 138 100.94C132 102.44 121 105.94 121 109.44" stroke="black" stroke-width="2"/>
<path d="M114.5 93.9395C112 88.4395 104.7 77.5395 95.5 77.9395C86.3 78.3395 84.3333 74.4395 84.5 72.4395" stroke="black" stroke-width="2"/>
<path d="M130 73.9395C127 71.4395 118.6 66.3395 109 65.9395C105.5 61.4395 100.5 50.9395 80 56.9395C72.5 48.9395 76.5 41.9395 49.5 34.9395" stroke="black" stroke-width="2"/>
<path d="M67.5 18.4395C70.1667 16.1062 76.8 14.4395 82 26.4395C90.5 28.4395 102.5 24.9395 108.5 47.9395" stroke="black" stroke-width="2"/>
<path d="M128.5 63.9395C134.167 65.9395 146.1 71.2395 148.5 76.4395" stroke="black" stroke-width="2"/>
<path d="M165 102.44C162.833 99.2729 156.7 93.5395 149.5 95.9395" stroke="black" stroke-width="2"/>
<path d="M178.5 137.44C172 136.44 159.1 129.34 159.5 108.94" stroke="black" stroke-width="2"/>
<path d="M137 101.44C143.667 104.44 156.6 114.94 155 132.94" stroke="black" stroke-width="2"/>
<path d="M155.5 133.44C161.167 138.606 172.8 152.24 174 165.44" stroke="black" stroke-width="2"/>
<path d="M140 170.94C138.667 165.44 131.4 155.64 113 160.44C111.8 162.44 108.5 167.606 107 169.94C103 166.773 91.8 161.04 79 163.44C66.2 165.84 64.3333 166.44 65 166.44" stroke="black" stroke-width="2"/>
<path d="M72 124.94C76 132.773 83.4 151.34 81 162.94" stroke="black" stroke-width="2"/>
<path d="M106.5 170.44C110.5 170.773 119.2 173.84 122 183.44" stroke="black" stroke-width="2"/>
<path d="M66.5 109.94C71 110.44 81 113.04 85 119.44" stroke="black" stroke-width="2"/>
<path d="M85.5 119.44C94 122.44 111.9 130.64 115.5 139.44C114.5 148.44 118 153.44 112.5 160.94" stroke="black" stroke-width="2"/>
<path d="M71.5 85.9395C74.5 91.7729 80.3 105.74 79.5 114.94" stroke="black" stroke-width="2"/>
<path d="M106.5 103.44C102.833 106.94 95.6 116.04 96 124.44" stroke="black" stroke-width="2"/>
<path d="M118.5 118.94C111.833 119.44 98.4 121.54 98 125.94" stroke="black" stroke-width="2"/>
<path d="M63 139.44C59.1667 136.94 51.1 129.14 49.5 117.94C47.1 113.14 38.1667 108.606 34 106.94C33 105.106 31.3 99.5395 32.5 91.9395" stroke="black" stroke-width="2"/>
<path d="M59.5 107.94C54.6667 107.773 44.8 108.44 44 112.44" stroke="black" stroke-width="2"/>
<path d="M33.5 141.44C41.1667 151.44 56.5 172.64 56.5 177.44C56.5 182.24 59.1667 190.106 60.5 193.44C63.1667 194.44 69.9 195.44 75.5 191.44C82.5 186.44 99 187.94 103 195.44C107 202.94 111 219.94 105 223.94C99 227.94 98.5 241.44 84 244.44C69.5 247.44 56 247.94 52 244.44C48 240.94 45.5 230.94 33 230.44" stroke="black" stroke-width="2"/>
<path d="M52.5 225.94C49.8333 229.106 44.9 236.04 46.5 238.44" stroke="black" stroke-width="2"/>
<path d="M60.5 193.44C64.1667 193.606 70.8 196.94 68 208.94" stroke="black" stroke-width="2"/>
<path d="M54.5 192.94C48.5 195.106 36.2 200.84 35 206.44" stroke="black" stroke-width="2"/>
<path d="M64.5 265.94C60.5 260.44 49.3 250.14 36.5 252.94" stroke="black" stroke-width="2"/>
<path d="M60.5 295.44C61.1667 290.773 60.3 280.44 51.5 276.44C40.5 271.44 37 266.44 32.5 268.44" stroke="black" stroke-width="2"/>
<path d="M77 290.94C79.3333 291.44 83.9 294.14 83.5 300.94" stroke="black" stroke-width="2"/>
<path d="M104.5 269.94C105.667 270.606 108.2 273.24 109 278.44C110 284.94 115 299.44 111 304.44" stroke="black" stroke-width="2"/>
<path d="M108 277.44C114.667 279.273 128.7 284.34 131.5 289.94" stroke="black" stroke-width="2"/>
<path d="M173 226.44C174.833 227.773 178.5 232.44 178.5 240.44C178.5 248.44 170.167 259.44 166 263.94" stroke="black" stroke-width="2"/>
<path d="M170.5 258.94C167.167 259.606 160 259.84 158 255.44" stroke="black" stroke-width="2"/>
<path d="M143.5 258.44C145 260.606 149.5 265.34 155.5 266.94" stroke="black" stroke-width="2"/>
<path d="M178.5 243.44C179.833 255.44 181.7 280.14 178.5 282.94C174.5 286.44 160 304.94 161 309.44C162 313.94 164 317.44 159.5 320.94C155 324.44 149 335.44 145.5 331.94C142 328.44 141 326.94 140 323.94" stroke="black" stroke-width="2"/>
<path d="M147 332.94C139.167 334.94 123.2 338.34 122 335.94" stroke="black" stroke-width="2"/>
<path d="M180.5 199.94C184.167 201.606 191 207.14 189 215.94C186.5 226.94 181 237.94 178.5 238.94" stroke="black" stroke-width="2"/>
<path d="M24.5 312.44C26.1667 313.773 29 318.94 27 328.94" stroke="black" stroke-width="2"/>
<path d="M10 306.94C7.33333 313.773 5.3 330.14 18.5 340.94" stroke="black" stroke-width="2"/>
<path d="M126 312.94C124.333 320.773 119.4 336.84 113 338.44C105 340.44 97.5 345.44 91.5 340.94C85.5 336.44 83.5 330.44 84.5 325.94" stroke="black" stroke-width="2"/>
<path d="M24 95.4395C18.6667 94.4395 7.4 94.2395 5 101.44C2.6 108.64 2.66667 99.7729 3 94.4395" stroke="black"/>
<path d="M36 127.44C29.6667 125.106 14.8 122.54 6 130.94" stroke="black"/>
<path d="M37 187.44C28.5 184.773 10.3 182.24 5.5 193.44" stroke="black"/>
<path d="M17 230.94C13.3333 231.44 5.9 234.44 5.5 242.44" stroke="black"/>
<path d="M10 225.94C9.5 219.94 6.5 213.44 4.5 215.94" stroke="black"/>
<path d="M10 275.94C10.8333 281.273 14 292.64 20 295.44C27.5 298.94 27.5 300.94 37 300.94" stroke="black"/>
<path d="M90 347.94C88 349.44 71.5 354.44 57.5 353.44C43.5 352.44 32 354.94 25.5 351.44C19 347.94 10 347.94 10 343.94" stroke="black"/>
<path d="M102 348.44C98.1667 351.606 89 358.04 83 358.44C75.5 358.94 59 360.44 53 358.44C47 356.44 39.5 355.94 35.5 356.44C31.5 356.94 23 357.44 19 354.44C15 351.44 10 350.94 10 348.44" stroke="black"/>
<path d="M112.5 350.44C102.5 357.44 100 363.94 86.5 363.94C73 363.94 72.5 360.94 63.5 363.94C54.5 366.94 54 369.44 45.5 368.44C37 367.44 33 376.44 27 371.44C21 366.44 13 362.94 12.5 359.44C12 355.94 9.5 355.94 9.5 353.94" stroke="black"/>
<path d="M107.5 348.44C102 353.44 102 355.94 95.5 356.94C89 357.94 87.5 361.44 83.5 360.94C79.5 360.44 59 360.94 57 362.44C55 363.94 44.5 366.94 39.5 363.94C34.5 360.94 28.5 357.94 24.5 359.44C20.5 360.94 13.5 356.94 12 353.44C10.8 350.64 9.5 347.94 9 346.94" stroke="black"/>
<path d="M122.5 354.94C115 360.44 105.5 365.44 98 366.94C90.5 368.44 83 373.94 78.5 370.44C74 366.94 71.5 364.94 66.5 366.94C61.5 368.94 57 372.94 52 373.44C47 373.94 46 377.44 39.5 376.44C33 375.44 22.5 376.44 20 373.44" stroke="black"/>
<path d="M130.5 354.94C126 361.44 125.5 364.94 118.5 366.44C111.5 367.94 112.5 371.44 105.5 374.44C98.5 377.44 97.5 379.94 92.5 380.94C87.5 381.94 85 381.94 80 381.94C75 381.94 73.5 381.94 67.5 381.94C61.5 381.94 59.5 379.94 54.5 381.94C49.5 383.94 49 384.94 44 385.44C39 385.94 33.5 384.44 30 381.94" stroke="black"/>
<path d="M126.5 354.44C123 358.94 120 359.44 115 362.94C110 366.44 103 370.44 100 372.44C97 374.44 97.5 376.44 89 376.44C80.5 376.44 78 376.44 74.5 375.44C71 374.44 72 374.44 64 375.44C56 376.44 54 377.44 53 378.44C52 379.44 50.5 380.94 45.5 381.44C41.5 381.84 35.5 381.606 33 381.44C31.8333 381.44 29 381.14 27 379.94" stroke="black"/>
</svg>
