<svg width="201" height="396" viewBox="0 0 201 396" fill="none" xmlns="http://www.w3.org/2000/svg">
<path d="M198.053 18.9395V66.4395L196.553 111.94V218.44V323.44C196.553 333.94 189.553 339.44 183.553 343.94C178.753 347.54 156.553 345.44 146.053 343.94H109.053C106.553 346.44 63.5532 349.44 59.5532 345.94C25.5532 327.94 38.0532 326.94 29.0532 312.94C11.5532 299.44 21.0532 293.94 17.5532 281.94C0.0532074 260.94 9.05321 243.44 7.55321 237.44C-3.44678 229.44 6.55321 210.94 9.05321 203.94C6.55321 193.94 7.55321 197.44 7.55321 181.94C7.55321 146.44 17.5532 151.94 22.5532 141.94C19.5532 106.94 30.5532 109.94 35.0532 102.94C38.5532 87.4395 47.0532 84.4395 50.5532 78.4395C54.5532 54.9395 64.5532 53.4395 73.0532 46.4395C86.5532 26.4395 102.053 25.9395 111.553 23.4395C126.553 6.43954 125.053 14.9395 132.053 10.9395C192.553 -11.5605 198.053 17.9395 198.053 18.9395Z" stroke="black" stroke-width="5"/>
<path d="M60.5532 346.44C63.3865 356.44 72.3532 377.54 85.5532 381.94C102.053 387.44 123.053 392.94 135.053 392.94C147.053 392.94 155.053 394.94 164.553 387.44C174.053 379.94 190.053 365.94 190.553 357.94C190.953 351.54 191.387 341.273 191.553 336.94" stroke="black" stroke-width="5"/>
<path d="M45.0532 216.94C43.8865 223.273 43.4532 238.74 51.0532 249.94C60.5532 263.94 62.5532 263.94 59.5532 267.94C56.5532 271.94 51.0532 281.94 54.0532 295.44C57.0532 308.94 55.0532 315.94 62.5532 320.44C68.5532 324.04 78.7199 331.94 83.0532 335.44" stroke="black" stroke-width="2"/>
<path d="M26.5532 164.44C24.8865 170.44 22.8532 184.74 28.0532 193.94C34.5532 205.44 31.0532 209.94 41.0532 214.44C49.0532 218.04 58.0532 221.94 61.5532 223.44C66.0532 228.773 76.0532 241.04 80.0532 247.44C85.0532 255.44 92.0532 269.44 99.5532 271.94C107.053 274.44 115.053 283.44 121.553 289.44C126.753 294.24 134.387 294.773 137.553 294.44C140.553 296.273 147.353 301.14 150.553 305.94C153.753 310.74 170.22 311.273 178.053 310.94C183.053 309.94 193.353 306.84 194.553 302.44" stroke="black" stroke-width="2"/>
<path d="M102.553 303.44C106.387 306.773 114.353 315.44 115.553 323.44C116.753 331.44 124.72 337.106 128.553 338.94C131.553 339.773 139.253 340.94 146.053 338.94C154.553 336.44 162.553 335.44 164.053 331.44" stroke="black" stroke-width="2"/>
<path d="M50.5532 160.44C46.5532 167.94 39.9532 184.64 45.5532 191.44C52.5532 199.94 53.0532 201.94 57.5532 201.94" stroke="black" stroke-width="2"/>
<path d="M68.5532 176.94C68.0532 180.44 66.0532 188.34 62.0532 191.94C57.0532 196.44 55.5532 205.94 57.0532 209.94C58.5532 213.94 57.5532 221.44 64.0532 226.44" stroke="black" stroke-width="2"/>
<path d="M43.0532 163.94C43.5532 155.606 48.1532 137.44 62.5532 131.44C73.5532 122.94 76.0532 119.94 77.0532 115.94C78.0532 111.94 82.0532 103.44 91.5532 100.44C101.053 97.4396 107.053 85.9396 110.553 80.4396C114.053 74.9396 121.053 65.4396 132.053 65.4396C143.053 65.4396 146.053 66.9396 154.053 60.4396C162.053 53.9396 167.053 51.4396 173.553 53.9396C180.053 56.4396 190.053 55.9396 192.553 62.9396C194.553 68.5396 196.72 75.2729 197.553 77.9396" stroke="black" stroke-width="2"/>
<path d="M177.553 35.4395C174.72 41.2729 168.053 53.2395 164.053 54.4395" stroke="black" stroke-width="2"/>
<path d="M174.553 24.9395C182.053 27.2729 197.253 33.8395 198.053 41.4395" stroke="black" stroke-width="2"/>
<path d="M156.553 22.9395C147.887 22.1062 128.453 26.1395 120.053 48.9395" stroke="black" stroke-width="2"/>
<path d="M127.553 36.9395C122.887 35.4395 109.653 35.3395 94.0532 46.9395C88.0532 50.4395 73.0532 53.4395 71.5532 63.9395C70.0532 74.4395 71.0532 74.4395 66.5532 78.4395C62.0532 82.4395 58.5532 93.4395 62.5532 100.94C68.5532 102.44 79.5532 105.94 79.5532 109.44" stroke="black" stroke-width="2"/>
<path d="M86.0532 93.9395C88.5532 88.4395 95.8532 77.5395 105.053 77.9395C114.253 78.3395 116.22 74.4395 116.053 72.4395" stroke="black" stroke-width="2"/>
<path d="M70.5532 73.9395C73.5532 71.4395 81.9532 66.3395 91.5532 65.9395C95.0532 61.4395 100.053 50.9395 120.553 56.9395C128.053 48.9395 124.053 41.9395 151.053 34.9395" stroke="black" stroke-width="2"/>
<path d="M133.053 18.4395C130.387 16.1062 123.753 14.4395 118.553 26.4395C110.053 28.4395 98.0532 24.9395 92.0532 47.9395" stroke="black" stroke-width="2"/>
<path d="M72.0532 63.9395C66.3865 65.9395 54.4532 71.2395 52.0532 76.4395" stroke="black" stroke-width="2"/>
<path d="M35.5532 102.44C37.7199 99.2729 43.8532 93.5395 51.0532 95.9395" stroke="black" stroke-width="2"/>
<path d="M22.0532 137.44C28.5532 136.44 41.4532 129.34 41.0532 108.94" stroke="black" stroke-width="2"/>
<path d="M63.5532 101.44C56.8865 104.44 43.9532 114.94 45.5532 132.94" stroke="black" stroke-width="2"/>
<path d="M45.0532 133.44C39.3865 138.606 27.7532 152.24 26.5532 165.44" stroke="black" stroke-width="2"/>
<path d="M60.5532 170.94C61.8865 165.44 69.1532 155.64 87.5532 160.44C88.7532 162.44 92.0532 167.606 93.5532 169.94C97.5532 166.773 108.753 161.04 121.553 163.44C134.353 165.84 136.22 166.44 135.553 166.44" stroke="black" stroke-width="2"/>
<path d="M128.553 124.94C124.553 132.773 117.153 151.34 119.553 162.94" stroke="black" stroke-width="2"/>
<path d="M94.0532 170.44C90.0532 170.773 81.3532 173.84 78.5532 183.44" stroke="black" stroke-width="2"/>
<path d="M134.053 109.94C129.553 110.44 119.553 113.04 115.553 119.44" stroke="black" stroke-width="2"/>
<path d="M115.053 119.44C106.553 122.44 88.6532 130.64 85.0532 139.44C86.0532 148.44 82.5532 153.44 88.0532 160.94" stroke="black" stroke-width="2"/>
<path d="M129.053 85.9395C126.053 91.7729 120.253 105.74 121.053 114.94" stroke="black" stroke-width="2"/>
<path d="M94.0532 103.44C97.7199 106.94 104.953 116.04 104.553 124.44" stroke="black" stroke-width="2"/>
<path d="M82.0532 118.94C88.7199 119.44 102.153 121.54 102.553 125.94" stroke="black" stroke-width="2"/>
<path d="M137.553 139.44C141.387 136.94 149.453 129.14 151.053 117.94C153.453 113.14 162.387 108.606 166.553 106.94C167.553 105.106 169.253 99.5395 168.053 91.9395" stroke="black" stroke-width="2"/>
<path d="M141.053 107.94C145.887 107.773 155.753 108.44 156.553 112.44" stroke="black" stroke-width="2"/>
<path d="M167.053 141.44C159.387 151.44 144.053 172.64 144.053 177.44C144.053 182.24 141.387 190.106 140.053 193.44C137.387 194.44 130.653 195.44 125.053 191.44C118.053 186.44 101.553 187.94 97.5532 195.44C93.5532 202.94 89.5532 219.94 95.5532 223.94C101.553 227.94 102.053 241.44 116.553 244.44C131.053 247.44 144.553 247.94 148.553 244.44C152.553 240.94 155.053 230.94 167.553 230.44" stroke="black" stroke-width="2"/>
<path d="M148.053 225.94C150.72 229.106 155.653 236.04 154.053 238.44" stroke="black" stroke-width="2"/>
<path d="M140.053 193.44C136.387 193.606 129.753 196.94 132.553 208.94" stroke="black" stroke-width="2"/>
<path d="M146.053 192.94C152.053 195.106 164.353 200.84 165.553 206.44" stroke="black" stroke-width="2"/>
<path d="M136.053 265.94C140.053 260.44 151.253 250.14 164.053 252.94" stroke="black" stroke-width="2"/>
<path d="M140.053 295.44C139.387 290.773 140.253 280.44 149.053 276.44C160.053 271.44 163.553 266.44 168.053 268.44" stroke="black" stroke-width="2"/>
<path d="M123.553 290.94C121.22 291.44 116.653 294.14 117.053 300.94" stroke="black" stroke-width="2"/>
<path d="M96.0532 269.94C94.8866 270.606 92.3532 273.24 91.5532 278.44C90.5532 284.94 85.5532 299.44 89.5532 304.44" stroke="black" stroke-width="2"/>
<path d="M92.5532 277.44C85.8865 279.273 71.8532 284.34 69.0532 289.94" stroke="black" stroke-width="2"/>
<path d="M27.5532 226.44C25.7199 227.773 22.0532 232.44 22.0532 240.44C22.0532 248.44 30.3865 259.44 34.5532 263.94" stroke="black" stroke-width="2"/>
<path d="M30.0532 258.94C33.3865 259.606 40.5532 259.84 42.5532 255.44" stroke="black" stroke-width="2"/>
<path d="M57.0532 258.44C55.5532 260.606 51.0532 265.34 45.0532 266.94" stroke="black" stroke-width="2"/>
<path d="M22.0532 243.44C20.7199 255.44 18.8532 280.14 22.0532 282.94C26.0532 286.44 40.5532 304.94 39.5532 309.44C38.5532 313.94 36.5532 317.44 41.0532 320.94C45.5532 324.44 51.5532 335.44 55.0532 331.94C58.5532 328.44 59.5532 326.94 60.5532 323.94" stroke="black" stroke-width="2"/>
<path d="M53.5532 332.94C61.3865 334.94 77.3532 338.34 78.5532 335.94" stroke="black" stroke-width="2"/>
<path d="M20.0532 199.94C16.3865 201.606 9.55321 207.14 11.5532 215.94C14.0532 226.94 19.5532 237.94 22.0532 238.94" stroke="black" stroke-width="2"/>
<path d="M176.053 312.44C174.387 313.773 171.553 318.94 173.553 328.94" stroke="black" stroke-width="2"/>
<path d="M190.553 306.94C193.22 313.773 195.253 330.14 182.053 340.94" stroke="black" stroke-width="2"/>
<path d="M74.5532 312.94C76.2199 320.773 81.1532 336.84 87.5532 338.44C95.5532 340.44 103.053 345.44 109.053 340.94C115.053 336.44 117.053 330.44 116.053 325.94" stroke="black" stroke-width="2"/>
<path d="M176.553 95.4395C181.887 94.4395 193.153 94.2395 195.553 101.44C197.953 108.64 197.887 99.7729 197.553 94.4395" stroke="black"/>
<path d="M164.553 127.44C170.887 125.106 185.753 122.54 194.553 130.94" stroke="black"/>
<path d="M163.553 187.44C172.053 184.773 190.253 182.24 195.053 193.44" stroke="black"/>
<path d="M183.553 230.94C187.22 231.44 194.653 234.44 195.053 242.44" stroke="black"/>
<path d="M190.553 225.94C191.053 219.94 194.053 213.44 196.053 215.94" stroke="black"/>
<path d="M190.553 275.94C189.72 281.273 186.553 292.64 180.553 295.44C173.053 298.94 173.053 300.94 163.553 300.94" stroke="black"/>
<path d="M110.553 347.94C112.553 349.44 129.053 354.44 143.053 353.44C157.053 352.44 168.553 354.94 175.053 351.44C181.553 347.94 190.553 347.94 190.553 343.94" stroke="black"/>
<path d="M98.5532 348.44C102.387 351.606 111.553 358.04 117.553 358.44C125.053 358.94 141.553 360.44 147.553 358.44C153.553 356.44 161.053 355.94 165.053 356.44C169.053 356.94 177.553 357.44 181.553 354.44C185.553 351.44 190.553 350.94 190.553 348.44" stroke="black"/>
<path d="M88.0532 350.44C98.0532 357.44 100.553 363.94 114.053 363.94C127.553 363.94 128.053 360.94 137.053 363.94C146.053 366.94 146.553 369.44 155.053 368.44C163.553 367.44 167.553 376.44 173.553 371.44C179.553 366.44 187.553 362.94 188.053 359.44C188.553 355.94 191.053 355.94 191.053 353.94" stroke="black"/>
<path d="M93.0532 348.44C98.5532 353.44 98.5532 355.94 105.053 356.94C111.553 357.94 113.053 361.44 117.053 360.94C121.053 360.44 141.553 360.94 143.553 362.44C145.553 363.94 156.053 366.94 161.053 363.94C166.053 360.94 172.053 357.94 176.053 359.44C180.053 360.94 187.053 356.94 188.553 353.44C189.753 350.64 191.053 347.94 191.553 346.94" stroke="black"/>
<path d="M78.0532 354.94C85.5532 360.44 95.0532 365.44 102.553 366.94C110.053 368.44 117.553 373.94 122.053 370.44C126.553 366.94 129.053 364.94 134.053 366.94C139.053 368.94 143.553 372.94 148.553 373.44C153.553 373.94 154.553 377.44 161.053 376.44C167.553 375.44 178.053 376.44 180.553 373.44" stroke="black"/>
<path d="M70.0532 354.94C74.5532 361.44 75.0532 364.94 82.0532 366.44C89.0532 367.94 88.0532 371.44 95.0532 374.44C102.053 377.44 103.053 379.94 108.053 380.94C113.053 381.94 115.553 381.94 120.553 381.94C125.553 381.94 127.053 381.94 133.053 381.94C139.053 381.94 141.053 379.94 146.053 381.94C151.053 383.94 151.553 384.94 156.553 385.44C161.553 385.94 167.053 384.44 170.553 381.94" stroke="black"/>
<path d="M74.0532 354.44C77.5532 358.94 80.5532 359.44 85.5532 362.94C90.5532 366.44 97.5532 370.44 100.553 372.44C103.553 374.44 103.053 376.44 111.553 376.44C120.053 376.44 122.553 376.44 126.053 375.44C129.553 374.44 128.553 374.44 136.553 375.44C144.553 376.44 146.553 377.44 147.553 378.44C148.553 379.44 150.053 380.94 155.053 381.44C159.053 381.84 165.053 381.606 167.553 381.44C168.72 381.44 171.553 381.14 173.553 379.94" stroke="black"/>
</svg>
