<svg width="721" height="164" viewBox="0 0 721 164" fill="none" xmlns="http://www.w3.org/2000/svg">
<path d="M3 59.5C22.6667 49.6667 50.2 25.5 3 7.5" stroke="black" stroke-width="6"/>
<path d="M60.5 2.5C53.5 21.3333 33.4 47.7 9 2.5" stroke="black" stroke-width="6"/>
<path d="M3 59.5L3 104.5" stroke="black" stroke-width="6"/>
<path d="M3 104.5C20.3333 111.5 44.6 131.4 3 155" stroke="black" stroke-width="6"/>
<path d="M59.5 160.5C51.6667 142.167 30.3 116.5 7.5 160.5" stroke="black" stroke-width="6"/>
<path d="M60 161L661 160" stroke="black" stroke-width="6"/>
<path d="M661 160C669.667 141.833 692.2 116.4 713 160" stroke="black" stroke-width="6"/>
<path d="M717.5 104C700 112.167 675.5 133.7 717.5 154.5" stroke="black" stroke-width="6"/>
<path d="M718 59.5V104.5" stroke="black" stroke-width="6"/>
<path d="M718.5 59C700.333 51.5 674.9 30.6 718.5 7" stroke="black" stroke-width="6"/>
<path d="M714 2.5C706 20.5 684.4 45.7 662 2.5" stroke="black" stroke-width="6"/>
<path d="M662.5 3H60.5" stroke="black" stroke-width="6"/>
</svg>
