<svg width="360" height="360" viewBox="0 0 360 360" fill="none" xmlns="http://www.w3.org/2000/svg">
<path d="M131 94C141 94.5 159.9 97.9 155.5 107.5" stroke="black"/>
<path d="M158 54C169 54.5 187 61.4 171 85" stroke="black"/>
<path d="M173.5 83.5C180 77.1667 196.4 67.9 210 81.5" stroke="black"/>
<path d="M195 241C197.5 245.333 204.5 255.3 212.5 260.5C220.5 265.7 221.833 270.667 221.5 272.5" stroke="black"/>
<path d="M207 256C211.5 262.5 219.4 276.9 215 282.5" stroke="black"/>
<path d="M227.5 224C226.333 231 225.6 247 232 255" stroke="black"/>
<path d="M226.5 224C232.5 226.833 244.5 233.8 244.5 239" stroke="black"/>
<path d="M198 162C190.833 161 174 161.4 164 171" stroke="black"/>
<path d="M197 165.5C194.167 168.5 186.6 174.7 179 175.5" stroke="black"/>
<path d="M192 170.5C181.6 168.5 176 171.667 174.5 173.5" stroke="black"/>
<path d="M106 266C116 278.667 138.5 303.6 148.5 302" stroke="black"/>
<path d="M262.5 113C264.333 117.667 266.9 127.6 262.5 130C258.1 132.4 244.333 132 238 131.5" stroke="black" stroke-width="2"/>
<path d="M247.5 159.5H266C267.833 156.333 270.1 149.6 264.5 148C258.9 146.4 249.833 148 246 149" stroke="black" stroke-width="2"/>
<path d="M243.5 144C252.333 144.667 270 145.1 270 141.5C270 137 270.5 129.5 265 129.5C260.6 129.5 257.5 130.833 256.5 131.5" stroke="black" stroke-width="2"/>
<path d="M189.5 138.5C195.333 129.5 211.4 119.3 229 150.5" stroke="black" stroke-width="2"/>
<path d="M96.5 238.5C95.1667 220.667 102.1 179.7 140.5 158.5" stroke="black" stroke-width="3"/>
<path d="M205.5 168.5C208 177 208.5 201.8 190.5 233" stroke="black" stroke-width="3"/>
<path d="M192 249C198.167 225.333 211.7 177.6 216.5 176C222.5 174 230.5 174.5 235.5 181C239.5 186.2 247.5 195.833 251 200" stroke="black" stroke-width="3"/>
<path d="M104 201C105.333 212.833 111.6 239.9 126 253.5" stroke="black" stroke-width="3"/>
<path d="M110.5 227.5C112 226.167 117.8 224.6 129 229C140.2 233.4 153.333 232.833 158.5 232" stroke="black" stroke-width="3"/>
<path d="M204.5 202.5C197.333 203 180.2 206 169 214C155 224 146.5 231 142 229" stroke="black" stroke-width="3"/>
<path d="M112.5 132.5C110.333 138.833 110.7 151.3 129.5 150.5" stroke="black"/>
<path d="M91 155C95.5 151.667 107.2 145.7 118 148.5" stroke="black"/>
<path d="M103.5 200.5C109.167 199.167 122.3 198.9 129.5 208.5" stroke="black"/>
<path d="M124 204C129.333 200.667 143.1 196 155.5 204" stroke="black"/>
<path d="M128.5 168C137.333 168.167 155.9 169.8 159.5 175C163.1 180.2 172.333 177.167 176.5 175" stroke="black"/>
<path d="M147.5 171C148.167 168.167 152.3 162.9 163.5 164.5" stroke="black"/>
<path d="M211 189.5C213.667 199.5 220.8 220.5 228 224.5" stroke="black"/>
<path d="M220.5 214.5C219 217 215.6 224.5 214 234.5" stroke="black"/>
<path d="M191.5 231C185 245.167 168.2 275 153 281" stroke="black"/>
<path d="M193 247.5C190.333 252 185.2 262.8 186 270" stroke="black"/>
<path d="M198 222.5C188.5 246.667 170.5 301.5 174.5 327.5" stroke="black"/>
<path d="M105.5 160C105.5 163.667 107.7 172.5 116.5 178.5" stroke="black"/>
<path d="M94 173.5C96.6667 168.167 104.2 161.3 113 176.5" stroke="black"/>
<path d="M208.5 145.5C206.667 150 201.6 159.4 196 161" stroke="black"/>
<path d="M113.5 125C90.5 125.167 53.5 145.8 89.5 227C97 243.5 100 272 131 302C162 332 177 352 209 344.5C217.5 339 261.5 262.5 255 232C255 212.5 256.5 213 249.5 196.5C255 184 253.5 176.5 249.5 166.5C245.5 156.5 246 138.5 232.5 125C221.7 114.2 217 108.5 216 107" stroke="black" stroke-width="5"/>
<path d="M108.5 126.5C112.333 107.5 124.7 66 143.5 52C143.5 37.5 134 18 143.5 17C149.5 17 152.5 17 156.5 17C156.5 30 154.5 40 159.5 44C164.5 39 173 40.5 172 17C184 9.4 186.333 18.1667 186 23.5V39.5" stroke="black" stroke-width="5"/>
<path d="M142.5 149C146 127.167 158.7 83.1 181.5 81.5C210 79.5 225.5 84 235 89C242.6 93 258.167 94 265 94" stroke="black" stroke-width="5"/>
<path d="M186.5 21C190.167 20.3333 198 20.4 200 26C202.5 33 195 43.5 210 52.5C216 59.5 222 79.5 221 84.5" stroke="black" stroke-width="5"/>
<path d="M204 169C197.5 165.667 185.4 154 189 134C193.5 109 198 107 213 106.5C225 106.1 251 111 262.5 113.5C267.333 109.667 274.1 100.1 262.5 92.5" stroke="black" stroke-width="5"/>
</svg>
