<svg width="716" height="1442" viewBox="0 0 716 1442" fill="none" xmlns="http://www.w3.org/2000/svg">
<path d="M219.994 1094.28C214.828 1092.78 204.494 1094.28 204.494 1112.28C204.494 1134.78 186.494 1228.28 177.494 1232.28C170.294 1235.48 172.161 1251.95 173.994 1259.78C170.828 1267.45 166.394 1292.98 173.994 1333.78C168.994 1356.78 170.494 1373.78 173.994 1380.28C177.494 1386.78 166.494 1387.28 182.994 1404.78C182.994 1416.28 179.494 1432.78 189.994 1430.78C200.494 1428.78 214.494 1421.78 209.494 1413.28C204.494 1404.78 203.494 1395.78 206.494 1395.28C209.494 1394.78 210.994 1380.28 206.494 1380.28C201.994 1380.28 209.494 1370.78 209.494 1368.78C209.494 1366.78 206.494 1357.78 206.494 1345.78C206.494 1333.78 218.494 1271.28 213.994 1267.28C210.394 1264.08 216.828 1260.95 220.494 1259.78C222.661 1254.95 225.694 1243.48 220.494 1236.28C215.294 1229.08 223.661 1204.28 228.494 1192.78C235.661 1165.95 251.294 1112.28 256.494 1112.28C261.694 1112.28 258.661 1105.28 256.494 1101.78M154.994 1042.28C149.994 1036.28 138.494 1028.68 132.494 1046.28C124.994 1068.28 83.4944 1169.78 70.9944 1175.78C60.9944 1180.58 66.8278 1189.12 70.9944 1192.78C67.3278 1206.62 61.0944 1234.68 65.4944 1236.28C70.9944 1238.28 52.4944 1295.28 65.4944 1295.78C70.9944 1308.78 59.9944 1306.78 74.4944 1319.78C79.9944 1332.28 82.9944 1344.28 90.4944 1341.78C97.9944 1339.28 103.994 1326.28 99.4944 1319.78C94.9944 1313.28 92.4944 1307.78 95.9944 1301.78C98.7944 1296.98 93.4944 1291.12 90.4944 1288.78C93.4944 1260.78 101.294 1204.58 108.494 1203.78C115.694 1202.98 116.828 1179.12 116.494 1167.28C132.328 1138.12 166.694 1079.78 177.494 1079.78C182.994 1068.78 184.994 1066.28 177.494 1060.28C171.494 1055.48 159.994 1046.28 154.994 1042.28Z" stroke="black" stroke-width="5"/>
<path d="M322.494 1115.78C317.994 1117.62 309.794 1122.88 312.994 1129.28C316.994 1137.28 328.994 1191.78 322.494 1248.28C322.494 1276.28 326.494 1276.78 328.994 1276.78C331.494 1276.78 322.994 1293.78 333.494 1309.78C339.494 1326.78 348.994 1382.78 352.494 1385.28C355.994 1387.78 358.994 1402.78 362.994 1402.78C366.994 1402.78 379.494 1427.78 377.994 1434.28C383.994 1442.78 397.494 1438.78 398.494 1430.78C399.494 1422.78 399.494 1415.78 392.994 1409.28C387.794 1404.08 387.828 1391.12 388.494 1385.28L382.994 1379.78C384.661 1378.12 386.994 1374.08 382.994 1371.28C377.994 1367.78 361.994 1291.78 366.994 1280.28C366.994 1270.28 364.328 1271.45 362.994 1273.28L366.994 1261.78C361.994 1254.62 352.794 1238.98 355.994 1233.78C359.994 1227.28 351.994 1169.28 359.494 1139.28C362.994 1119.28 359.494 1111.78 355.994 1110.28" stroke="black" stroke-width="5"/>
<path d="M21.4944 1026.28C16.1611 1031.95 6.09445 1047.28 8.49445 1063.28C5.49445 1077.28 0.994446 1081.78 2.99445 1086.78C4.99445 1091.78 -0.505556 1100.28 10.4944 1107.78C21.4944 1115.28 8.99445 1121.28 23.4944 1121.78C29.9944 1117.78 30.9944 1110.78 29.4944 1105.28C28.2944 1100.88 28.9944 1092.78 29.4944 1089.28C28.9944 1079.45 31.3944 1057.78 44.9944 1049.78C46.9944 1044.98 45.8278 1040.78 44.9944 1039.28" stroke="black" stroke-width="5"/>
<path d="M291.494 769.783C284.328 765.617 268.894 760.983 264.494 775.783C258.994 794.283 264.494 807.783 264.494 808.283C264.494 808.783 257.994 820.283 264.494 826.283C269.694 831.083 253.328 845.283 244.494 851.783" stroke="black" stroke-width="2"/>
<path d="M228.494 754.283C233.161 758.617 240.094 772.183 230.494 791.783C219.994 800.283 209.494 800.783 204.994 810.283" stroke="black" stroke-width="2"/>
<path d="M186.994 803.283C194.828 804.95 210.594 811.783 210.994 825.783C211.494 843.283 209.494 855.283 207.994 854.783" stroke="black" stroke-width="2"/>
<path d="M236.494 792.283C239.828 786.617 249.094 777.883 259.494 788.283" stroke="black" stroke-width="2"/>
<path d="M238.494 752.283C244.994 751.783 258.594 753.083 260.994 762.283C263.394 771.483 260.661 780.783 258.994 784.283" stroke="black" stroke-width="2"/>
<path d="M263.994 750.783C269.828 748.617 284.494 747.383 296.494 759.783C308.494 772.183 312.494 771.283 312.994 769.283" stroke="black" stroke-width="2"/>
<path d="M301.994 777.283C304.328 784.617 307.994 801.683 303.994 811.283" stroke="black" stroke-width="2"/>
<path d="M295.494 805.783C297.494 815.783 300.594 837.083 296.994 842.283C293.394 847.483 288.161 855.117 285.994 858.283" stroke="black" stroke-width="2"/>
<path d="M244.494 858.283C247.994 855.617 257.294 851.083 266.494 854.283C277.994 858.283 286.494 854.283 290.994 863.283C294.594 870.483 296.161 875.617 296.494 877.283C295.661 883.117 293.394 894.783 290.994 894.783C288.594 894.783 287.661 898.45 287.494 900.283" stroke="black" stroke-width="2"/>
<path d="M344.994 878.283C342.661 872.783 335.494 862.383 325.494 864.783C312.994 867.783 325.494 861.783 305.994 866.283C300.794 870.683 297.161 876.117 295.994 878.283" stroke="black" stroke-width="2"/>
<path d="M206.494 859.283C208.328 853.117 213.394 840.683 218.994 840.283C225.994 839.783 230.994 839.283 232.994 842.783C237.794 846.383 241.994 851.283 243.494 853.283C245.494 860.283 248.294 875.383 243.494 879.783C238.694 884.183 234.494 888.95 232.994 890.783" stroke="black" stroke-width="2"/>
<path d="M297.994 819.783C300.494 816.117 307.194 809.583 313.994 812.783C320.794 815.983 324.494 820.45 325.494 822.283C325.328 827.117 325.994 837.483 329.994 840.283C334.994 843.783 339.494 852.783 338.994 858.283C338.594 862.683 338.828 868.117 338.994 870.283" stroke="black" stroke-width="2"/>
<path d="M345.494 797.783C342.161 798.117 334.794 800.183 331.994 805.783C328.494 812.783 324.494 817.783 325.494 822.783" stroke="black" stroke-width="2"/>
<path d="M370.494 855.283C369.161 850.617 367.994 840.183 373.994 835.783C379.994 831.383 381.494 826.283 381.494 824.283" stroke="black" stroke-width="2"/>
<path d="M271.994 671.783C272.494 675.95 272.694 685.483 269.494 690.283C265.494 696.283 260.494 705.783 260.994 714.283" stroke="black" stroke-width="2"/>
<path d="M265.494 681.783C262.828 680.45 256.294 680.283 251.494 690.283C245.494 702.783 239.494 705.283 245.494 713.283" stroke="black" stroke-width="2"/>
<path d="M302.994 140.283C299.994 152.95 294.694 180.783 297.494 190.783" stroke="black" stroke-width="2"/>
<path d="M213.494 160.283C214.828 167.783 218.794 184.183 223.994 189.783C229.194 195.383 228.494 206.117 227.494 210.783" stroke="black" stroke-width="2"/>
<path d="M207.494 190.783C210.994 201.783 214.994 201.783 216.494 199.783" stroke="black" stroke-width="2"/>
<path d="M183.994 193.283C180.161 198.283 172.294 210.383 171.494 218.783C170.494 229.283 166.494 248.283 171.494 252.283" stroke="black" stroke-width="2"/>
<path d="M190.994 113.283C186.994 118.283 179.094 130.583 179.494 139.783" stroke="black" stroke-width="2"/>
<path d="M126.494 107.283C130.161 108.95 136.894 115.883 134.494 130.283" stroke="black" stroke-width="2"/>
<path d="M134.494 161.283C131.494 166.783 136.494 170.783 129.494 175.283" stroke="black" stroke-width="2"/>
<path d="M74.9944 958.783C78.3278 960.283 85.2944 964.283 86.4944 968.283C87.9944 973.283 93.4944 972.283 93.4944 976.283C93.4944 979.483 92.1611 984.617 91.4944 986.783" stroke="black" stroke-width="2"/>
<path d="M3.99445 1084.28C6.16111 1081.78 11.6944 1077.38 16.4944 1079.78C22.4944 1082.78 27.9944 1088.28 27.9944 1091.28" stroke="black" stroke-width="2"/>
<path d="M68.4944 1190.78C71.6611 1187.62 79.3944 1181.88 84.9944 1184.28C91.9944 1187.28 104.994 1191.28 104.494 1195.78" stroke="black" stroke-width="2"/>
<path d="M63.9944 1295.28C65.9944 1290.95 71.5944 1282.68 77.9944 1284.28C84.3944 1285.88 90.9944 1288.95 93.4944 1290.28" stroke="black" stroke-width="2"/>
<path d="M173.994 1260.78C177.828 1258.45 187.794 1255.18 196.994 1260.78C208.494 1267.78 213.994 1260.78 213.994 1265.78" stroke="black" stroke-width="2"/>
<path d="M173.994 1377.28C180.994 1372.78 181.994 1369.78 188.494 1372.28" stroke="black" stroke-width="2"/>
<path d="M353.994 1388.28C354.494 1384.78 357.394 1377.78 364.994 1377.78C374.494 1377.78 383.494 1376.28 383.994 1379.78" stroke="black" stroke-width="2"/>
<path d="M329.494 1277.78C331.661 1275.45 337.394 1271.08 342.994 1272.28C349.994 1273.78 361.994 1269.28 363.494 1272.28" stroke="black" stroke-width="2"/>
<path d="M315.994 1079.28C320.328 1081.95 328.094 1089.38 324.494 1097.78C324.494 1101.78 321.994 1107.28 320.494 1106.78" stroke="black"/>
<path d="M221.994 1059.78C224.661 1063.45 229.394 1072.48 226.994 1079.28C224.594 1086.08 222.661 1089.12 221.994 1089.78" stroke="black"/>
<path d="M109.494 947.783C112.328 938.117 119.394 917.983 124.994 914.783C130.594 911.583 142.994 895.45 148.494 887.783C157.161 875.95 175.694 852.283 180.494 852.283" stroke="black"/>
<path d="M217.994 689.783C222.328 698.617 231.194 719.183 231.994 730.783C232.794 742.383 232.328 747.95 231.994 749.283" stroke="black"/>
<path d="M240.994 201.783C246.828 211.783 258.794 236.083 259.994 253.283C261.194 270.483 269.161 312.117 272.994 330.783C269.994 342.283 264.294 367.883 265.494 378.283" stroke="black"/>
<path d="M175.994 372.783C179.994 392.783 185.994 410.783 185.994 427.283C185.994 443.783 178.494 460.283 185.994 469.783" stroke="black"/>
<path d="M215.494 555.783C220.994 577.283 225.494 582.283 226.494 606.283" stroke="black"/>
<path d="M102.994 98.2833C118.161 81.45 158.394 57.8833 197.994 98.2833C197.994 116.283 220.494 137.783 180.994 155.783C188.494 183.283 205.494 153.283 188.494 226.783C180.994 247.283 173.494 284.283 180.994 325.283C186.994 358.083 230.161 511.283 250.994 583.783M250.994 583.783V651.283C237.828 681.117 222.494 739.683 266.494 735.283C281.494 729.783 284.994 727.283 293.994 719.783C305.994 716.783 330.494 701.783 323.494 681.283C316.494 660.783 301.494 583.283 309.994 538.283C307.494 493.283 300.994 375.283 300.494 371.283C303.494 366.283 310.494 317.783 297.494 279.283C297.494 244.483 297.494 215.117 297.494 204.783C312.328 195.283 334.594 166.583 304.994 127.783C307.794 112.983 310.828 99.95 311.994 95.2833C320.328 81.95 328.094 49.5833 292.494 26.7833C272.094 15.1833 260.328 6.95 256.994 4.28334C247.161 0.950002 225.194 -0.0166645 215.994 22.7833C213.494 30.2833 202.994 38.2833 215.994 64.7833C212.994 78.2833 203.994 132.283 209.994 147.783C206.994 162.783 191.494 199.783 213.494 222.783C218.994 238.283 241.494 315.783 241.494 331.783C241.494 347.783 241.494 393.783 241.494 410.783C241.494 427.783 248.994 469.783 247.494 482.283C250.294 493.883 250.994 554.783 250.994 583.783Z" stroke="black" stroke-width="5"/>
<path d="M104.994 97.2833C98.9944 99.6167 91.5944 111.683 109.994 141.283C109.994 172.783 109.994 223.783 116.494 226.283C122.994 228.783 121.994 336.283 148.494 428.783C154.894 461.583 173.828 541.45 182.494 577.283C186.494 602.283 196.194 654.883 202.994 665.283C202.994 682.083 209.994 730.95 213.494 753.283C201.161 757.45 177.694 771.883 182.494 796.283C182.494 800.683 185.828 805.117 187.494 806.783C180.494 807.45 165.694 813.183 162.494 830.783C148.994 855.783 125.994 902.783 115.494 906.283C107.094 909.083 92.6611 928.783 86.4944 938.283C81.9944 938.783 72.1944 943.583 68.9944 958.783C59.4944 972.783 51.9944 965.283 49.9944 984.283C48.3944 999.483 33.9944 1008.95 26.9944 1011.78C22.3278 1015.78 14.3944 1024.28 19.9944 1026.28C26.9944 1028.78 43.4944 1034.78 44.9944 1042.78C49.9944 1026.28 77.9944 995.283 89.9944 991.783C99.5944 988.983 110.994 973.95 115.494 966.783C119.161 954.617 129.394 926.983 140.994 913.783C155.494 897.283 196.494 853.783 204.994 855.283C211.794 856.483 199.828 894.783 192.994 913.783C187.328 941.45 172.494 998.283 158.494 1004.28C150.094 1014.28 154.994 1034.12 158.494 1042.78C164.494 1047.78 178.694 1056.28 187.494 1050.28C198.494 1042.78 204.994 1019.28 204.994 1008.28C204.994 997.283 207.994 949.783 218.994 929.783C229.994 909.783 230.494 888.283 234.994 889.283C239.494 890.283 245.994 971.783 234.994 991.783C226.194 1007.78 218.328 1042.78 215.494 1058.28C213.994 1069.28 212.594 1091.68 218.994 1093.28C226.994 1095.28 248.994 1105.28 254.994 1101.28C260.994 1097.28 272.494 1077.28 268.994 1063.78C265.494 1050.28 258.994 1017.28 263.994 995.283C268.994 973.283 277.994 898.783 288.994 897.783C295.494 906.283 311.994 995.283 308.494 1014.78C304.994 1034.28 304.994 1106.78 313.494 1107.78C321.994 1108.78 317.994 1117.28 336.494 1114.78C354.994 1112.28 368.494 1100.78 361.994 1082.28C355.494 1063.78 331.994 1020.28 336.494 991.783C340.994 963.283 338.994 906.283 350.494 897.783C359.694 890.983 348.994 879.95 342.494 875.283C351.328 876.783 368.794 874.883 367.994 855.283C380.494 863.283 369.994 870.783 414.994 868.283C459.994 865.783 522.994 900.783 517.494 929.783C525.494 939.383 529.828 933.783 530.994 929.783C542.328 934.117 570.894 945.983 594.494 958.783C609.494 977.783 592.494 979.283 615.994 991.783C621.194 988.983 625.828 988.617 627.494 988.783C627.161 993.95 632.394 1004.28 655.994 1004.28C683.494 1010.78 698.494 1022.28 708.494 1008.78C716.494 997.983 711.828 992.95 708.494 991.783C695.661 987.117 668.594 976.383 662.994 970.783C655.994 963.783 648.494 958.783 642.994 958.783C638.594 958.783 638.161 951.783 638.494 948.283C633.994 947.783 624.094 945.883 620.494 942.283C615.994 937.783 560.494 894.783 559.994 889.283C553.594 885.683 547.994 893.45 545.994 897.783C550.994 892.617 557.994 880.883 545.994 875.283C530.994 868.283 492.494 856.783 473.994 846.283C455.494 835.783 412.494 816.783 402.494 817.783C392.494 818.783 382.994 819.283 382.994 824.283C382.994 829.283 368.994 796.283 342.494 796.283C336.494 785.283 343.994 782.283 316.494 774.783C316.494 762.283 316.994 745.283 308.494 739.783C301.694 735.383 292.661 727.283 288.994 723.783" stroke="black" stroke-width="5"/>
</svg>
