<svg width="716" height="1442" viewBox="0 0 716 1442" fill="none" xmlns="http://www.w3.org/2000/svg">
<path d="M495.419 1094.28C500.585 1092.78 510.919 1094.28 510.919 1112.28C510.919 1134.78 528.919 1228.28 537.919 1232.28C545.119 1235.48 543.252 1251.95 541.419 1259.78C544.585 1267.45 549.019 1292.98 541.419 1333.78C546.419 1356.78 544.919 1373.78 541.419 1380.28C537.919 1386.78 548.919 1387.28 532.419 1404.78C532.419 1416.28 535.919 1432.78 525.419 1430.78C514.919 1428.78 500.919 1421.78 505.919 1413.28C510.919 1404.78 511.919 1395.78 508.919 1395.28C505.919 1394.78 504.419 1380.28 508.919 1380.28C513.419 1380.28 505.919 1370.78 505.919 1368.78C505.919 1366.78 508.919 1357.78 508.919 1345.78C508.919 1333.78 496.919 1271.28 501.419 1267.28C505.019 1264.08 498.585 1260.95 494.919 1259.78C492.752 1254.95 489.719 1243.48 494.919 1236.28C500.119 1229.08 491.752 1204.28 486.919 1192.78C479.752 1165.95 464.119 1112.28 458.919 1112.28C453.719 1112.28 456.752 1105.28 458.919 1101.78M560.419 1042.28C565.419 1036.28 576.919 1028.68 582.919 1046.28C590.419 1068.28 631.919 1169.78 644.419 1175.78C654.419 1180.58 648.585 1189.12 644.419 1192.78C648.085 1206.62 654.319 1234.68 649.919 1236.28C644.419 1238.28 662.919 1295.28 649.919 1295.78C644.419 1308.78 655.419 1306.78 640.919 1319.78C635.419 1332.28 632.419 1344.28 624.919 1341.78C617.419 1339.28 611.419 1326.28 615.919 1319.78C620.419 1313.28 622.919 1307.78 619.419 1301.78C616.619 1296.98 621.919 1291.12 624.919 1288.78C621.919 1260.78 614.119 1204.58 606.919 1203.78C599.719 1202.98 598.585 1179.12 598.919 1167.28C583.085 1138.12 548.719 1079.78 537.919 1079.78C532.419 1068.78 530.419 1066.28 537.919 1060.28C543.919 1055.48 555.419 1046.28 560.419 1042.28Z" stroke="black" stroke-width="5"/>
<path d="M392.919 1115.78C397.419 1117.62 405.619 1122.88 402.419 1129.28C398.419 1137.28 386.419 1191.78 392.919 1248.28C392.919 1276.28 388.919 1276.78 386.419 1276.78C383.919 1276.78 392.419 1293.78 381.919 1309.78C375.919 1326.78 366.419 1382.78 362.919 1385.28C359.419 1387.78 356.419 1402.78 352.419 1402.78C348.419 1402.78 335.919 1427.78 337.419 1434.28C331.419 1442.78 317.919 1438.78 316.919 1430.78C315.919 1422.78 315.919 1415.78 322.419 1409.28C327.619 1404.08 327.585 1391.12 326.919 1385.28L332.419 1379.78C330.752 1378.12 328.419 1374.08 332.419 1371.28C337.419 1367.78 353.419 1291.78 348.419 1280.28C348.419 1270.28 351.085 1271.45 352.419 1273.28L348.419 1261.78C353.419 1254.62 362.619 1238.98 359.419 1233.78C355.419 1227.28 363.419 1169.28 355.919 1139.28C352.419 1119.28 355.919 1111.78 359.419 1110.28" stroke="black" stroke-width="5"/>
<path d="M693.919 1026.28C699.252 1031.95 709.319 1047.28 706.919 1063.28C709.919 1077.28 714.419 1081.78 712.419 1086.78C710.419 1091.78 715.919 1100.28 704.919 1107.78C693.919 1115.28 706.419 1121.28 691.919 1121.78C685.419 1117.78 684.419 1110.78 685.919 1105.28C687.119 1100.88 686.419 1092.78 685.919 1089.28C686.419 1079.45 684.019 1057.78 670.419 1049.78C668.419 1044.98 669.585 1040.78 670.419 1039.28" stroke="black" stroke-width="5"/>
<path d="M423.919 769.783C431.085 765.617 446.519 760.983 450.919 775.783C456.419 794.283 450.919 807.783 450.919 808.283C450.919 808.783 457.419 820.283 450.919 826.283C445.719 831.083 462.085 845.283 470.919 851.783" stroke="black" stroke-width="2"/>
<path d="M486.919 754.283C482.252 758.617 475.319 772.183 484.919 791.783C495.419 800.283 505.919 800.783 510.419 810.283" stroke="black" stroke-width="2"/>
<path d="M528.419 803.283C520.585 804.95 504.819 811.783 504.419 825.783C503.919 843.283 505.919 855.283 507.419 854.783" stroke="black" stroke-width="2"/>
<path d="M478.919 792.283C475.585 786.617 466.319 777.883 455.919 788.283" stroke="black" stroke-width="2"/>
<path d="M476.919 752.283C470.419 751.783 456.819 753.083 454.419 762.283C452.019 771.483 454.752 780.783 456.419 784.283" stroke="black" stroke-width="2"/>
<path d="M451.419 750.783C445.585 748.617 430.919 747.383 418.919 759.783C406.919 772.183 402.919 771.283 402.419 769.283" stroke="black" stroke-width="2"/>
<path d="M413.419 777.283C411.085 784.617 407.419 801.683 411.419 811.283" stroke="black" stroke-width="2"/>
<path d="M419.919 805.783C417.919 815.783 414.819 837.083 418.419 842.283C422.019 847.483 427.252 855.117 429.419 858.283" stroke="black" stroke-width="2"/>
<path d="M470.919 858.283C467.419 855.617 458.119 851.083 448.919 854.283C437.419 858.283 428.919 854.283 424.419 863.283C420.819 870.483 419.252 875.617 418.919 877.283C419.752 883.117 422.019 894.783 424.419 894.783C426.819 894.783 427.752 898.45 427.919 900.283" stroke="black" stroke-width="2"/>
<path d="M370.419 878.283C372.752 872.783 379.919 862.383 389.919 864.783C402.419 867.783 389.919 861.783 409.419 866.283C414.619 870.683 418.252 876.117 419.419 878.283" stroke="black" stroke-width="2"/>
<path d="M508.919 859.283C507.085 853.117 502.019 840.683 496.419 840.283C489.419 839.783 484.419 839.283 482.419 842.783C477.619 846.383 473.419 851.283 471.919 853.283C469.919 860.283 467.119 875.383 471.919 879.783C476.719 884.183 480.919 888.95 482.419 890.783" stroke="black" stroke-width="2"/>
<path d="M417.419 819.783C414.919 816.117 408.219 809.583 401.419 812.783C394.619 815.983 390.919 820.45 389.919 822.283C390.085 827.117 389.419 837.483 385.419 840.283C380.419 843.783 375.919 852.783 376.419 858.283C376.819 862.683 376.585 868.117 376.419 870.283" stroke="black" stroke-width="2"/>
<path d="M369.919 797.783C373.252 798.117 380.619 800.183 383.419 805.783C386.919 812.783 390.919 817.783 389.919 822.783" stroke="black" stroke-width="2"/>
<path d="M344.919 855.283C346.252 850.617 347.419 840.183 341.419 835.783C335.419 831.383 333.919 826.283 333.919 824.283" stroke="black" stroke-width="2"/>
<path d="M443.419 671.783C442.919 675.95 442.719 685.483 445.919 690.283C449.919 696.283 454.919 705.783 454.419 714.283" stroke="black" stroke-width="2"/>
<path d="M449.919 681.783C452.585 680.45 459.119 680.283 463.919 690.283C469.919 702.783 475.919 705.283 469.919 713.283" stroke="black" stroke-width="2"/>
<path d="M412.419 140.283C415.419 152.95 420.719 180.783 417.919 190.783" stroke="black" stroke-width="2"/>
<path d="M501.919 160.283C500.585 167.783 496.619 184.183 491.419 189.783C486.219 195.383 486.919 206.117 487.919 210.783" stroke="black" stroke-width="2"/>
<path d="M507.919 190.783C504.419 201.783 500.419 201.783 498.919 199.783" stroke="black" stroke-width="2"/>
<path d="M531.419 193.283C535.252 198.283 543.119 210.383 543.919 218.783C544.919 229.283 548.919 248.283 543.919 252.283" stroke="black" stroke-width="2"/>
<path d="M524.419 113.283C528.419 118.283 536.319 130.583 535.919 139.783" stroke="black" stroke-width="2"/>
<path d="M588.919 107.283C585.252 108.95 578.519 115.883 580.919 130.283" stroke="black" stroke-width="2"/>
<path d="M580.919 161.283C583.919 166.783 578.919 170.783 585.919 175.283" stroke="black" stroke-width="2"/>
<path d="M640.419 958.783C637.085 960.283 630.119 964.283 628.919 968.283C627.419 973.283 621.919 972.283 621.919 976.283C621.919 979.483 623.252 984.617 623.919 986.783" stroke="black" stroke-width="2"/>
<path d="M711.419 1084.28C709.252 1081.78 703.719 1077.38 698.919 1079.78C692.919 1082.78 687.419 1088.28 687.419 1091.28" stroke="black" stroke-width="2"/>
<path d="M646.919 1190.78C643.752 1187.62 636.019 1181.88 630.419 1184.28C623.419 1187.28 610.419 1191.28 610.919 1195.78" stroke="black" stroke-width="2"/>
<path d="M651.419 1295.28C649.419 1290.95 643.819 1282.68 637.419 1284.28C631.019 1285.88 624.419 1288.95 621.919 1290.28" stroke="black" stroke-width="2"/>
<path d="M541.419 1260.78C537.585 1258.45 527.619 1255.18 518.419 1260.78C506.919 1267.78 501.419 1260.78 501.419 1265.78" stroke="black" stroke-width="2"/>
<path d="M541.419 1377.28C534.419 1372.78 533.419 1369.78 526.919 1372.28" stroke="black" stroke-width="2"/>
<path d="M361.419 1388.28C360.919 1384.78 358.019 1377.78 350.419 1377.78C340.919 1377.78 331.919 1376.28 331.419 1379.78" stroke="black" stroke-width="2"/>
<path d="M385.919 1277.78C383.752 1275.45 378.019 1271.08 372.419 1272.28C365.419 1273.78 353.419 1269.28 351.919 1272.28" stroke="black" stroke-width="2"/>
<path d="M399.419 1079.28C395.085 1081.95 387.319 1089.38 390.919 1097.78C390.919 1101.78 393.419 1107.28 394.919 1106.78" stroke="black"/>
<path d="M493.419 1059.78C490.752 1063.45 486.019 1072.48 488.419 1079.28C490.819 1086.08 492.752 1089.12 493.419 1089.78" stroke="black"/>
<path d="M605.919 947.783C603.085 938.117 596.019 917.983 590.419 914.783C584.819 911.583 572.419 895.45 566.919 887.783C558.252 875.95 539.719 852.283 534.919 852.283" stroke="black"/>
<path d="M497.419 689.783C493.085 698.617 484.219 719.183 483.419 730.783C482.619 742.383 483.085 747.95 483.419 749.283" stroke="black"/>
<path d="M474.419 201.783C468.585 211.783 456.619 236.083 455.419 253.283C454.219 270.483 446.252 312.117 442.419 330.783C445.419 342.283 451.119 367.883 449.919 378.283" stroke="black"/>
<path d="M539.419 372.783C535.419 392.783 529.419 410.783 529.419 427.283C529.419 443.783 536.919 460.283 529.419 469.783" stroke="black"/>
<path d="M499.919 555.783C494.419 577.283 489.919 582.283 488.919 606.283" stroke="black"/>
<path d="M612.419 98.2833C597.252 81.45 557.019 57.8833 517.419 98.2833C517.419 116.283 494.919 137.783 534.419 155.783C526.919 183.283 509.919 153.283 526.919 226.783C534.419 247.283 541.919 284.283 534.419 325.283C528.419 358.083 485.252 511.283 464.419 583.783M464.419 583.783V651.283C477.585 681.117 492.919 739.683 448.919 735.283C433.919 729.783 430.419 727.283 421.419 719.783C409.419 716.783 384.919 701.783 391.919 681.283C398.919 660.783 413.919 583.283 405.419 538.283C407.919 493.283 414.419 375.283 414.919 371.283C411.919 366.283 404.919 317.783 417.919 279.283C417.919 244.483 417.919 215.117 417.919 204.783C403.085 195.283 380.819 166.583 410.419 127.783C407.619 112.983 404.585 99.95 403.419 95.2833C395.085 81.95 387.319 49.5833 422.919 26.7833C443.319 15.1833 455.085 6.95 458.419 4.28334C468.252 0.950002 490.219 -0.0166645 499.419 22.7833C501.919 30.2833 512.419 38.2833 499.419 64.7833C502.419 78.2833 511.419 132.283 505.419 147.783C508.419 162.783 523.919 199.783 501.919 222.783C496.419 238.283 473.919 315.783 473.919 331.783C473.919 347.783 473.919 393.783 473.919 410.783C473.919 427.783 466.419 469.783 467.919 482.283C465.119 493.883 464.419 554.783 464.419 583.783Z" stroke="black" stroke-width="5"/>
<path d="M610.419 97.2833C616.419 99.6167 623.819 111.683 605.419 141.283C605.419 172.783 605.419 223.783 598.919 226.283C592.419 228.783 593.419 336.283 566.919 428.783C560.519 461.583 541.585 541.45 532.919 577.283C528.919 602.283 519.219 654.883 512.419 665.283C512.419 682.083 505.419 730.95 501.919 753.283C514.252 757.45 537.719 771.883 532.919 796.283C532.919 800.683 529.585 805.117 527.919 806.783C534.919 807.45 549.719 813.183 552.919 830.783C566.419 855.783 589.419 902.783 599.919 906.283C608.319 909.083 622.752 928.783 628.919 938.283C633.419 938.783 643.219 943.583 646.419 958.783C655.919 972.783 663.419 965.283 665.419 984.283C667.019 999.483 681.419 1008.95 688.419 1011.78C693.085 1015.78 701.019 1024.28 695.419 1026.28C688.419 1028.78 671.919 1034.78 670.419 1042.78C665.419 1026.28 637.419 995.283 625.419 991.783C615.819 988.983 604.419 973.95 599.919 966.783C596.252 954.617 586.019 926.983 574.419 913.783C559.919 897.283 518.919 853.783 510.419 855.283C503.619 856.483 515.585 894.783 522.419 913.783C528.085 941.45 542.919 998.283 556.919 1004.28C565.319 1014.28 560.419 1034.12 556.919 1042.78C550.919 1047.78 536.719 1056.28 527.919 1050.28C516.919 1042.78 510.419 1019.28 510.419 1008.28C510.419 997.283 507.419 949.783 496.419 929.783C485.419 909.783 484.919 888.283 480.419 889.283C475.919 890.283 469.419 971.783 480.419 991.783C489.219 1007.78 497.085 1042.78 499.919 1058.28C501.419 1069.28 502.819 1091.68 496.419 1093.28C488.419 1095.28 466.419 1105.28 460.419 1101.28C454.419 1097.28 442.919 1077.28 446.419 1063.78C449.919 1050.28 456.419 1017.28 451.419 995.283C446.419 973.283 437.419 898.783 426.419 897.783C419.919 906.283 403.419 995.283 406.919 1014.78C410.419 1034.28 410.419 1106.78 401.919 1107.78C393.419 1108.78 397.419 1117.28 378.919 1114.78C360.419 1112.28 346.919 1100.78 353.419 1082.28C359.919 1063.78 383.419 1020.28 378.919 991.783C374.419 963.283 376.419 906.283 364.919 897.783C355.719 890.983 366.419 879.95 372.919 875.283C364.085 876.783 346.619 874.883 347.419 855.283C334.919 863.283 345.419 870.783 300.419 868.283C255.419 865.783 192.419 900.783 197.919 929.783C189.919 939.383 185.585 933.783 184.419 929.783C173.085 934.117 144.519 945.983 120.919 958.783C105.919 977.783 122.919 979.283 99.4186 991.783C94.2186 988.983 89.5852 988.617 87.9186 988.783C88.2519 993.95 83.0186 1004.28 59.4186 1004.28C31.9186 1010.78 16.9186 1022.28 6.91858 1008.78C-1.08142 997.983 3.58525 992.95 6.91858 991.783C19.7519 987.117 46.8186 976.383 52.4186 970.783C59.4186 963.783 66.9186 958.783 72.4186 958.783C76.8186 958.783 77.2519 951.783 76.9186 948.283C81.4186 947.783 91.3186 945.883 94.9186 942.283C99.4186 937.783 154.919 894.783 155.419 889.283C161.819 885.683 167.419 893.45 169.419 897.783C164.419 892.617 157.419 880.883 169.419 875.283C184.419 868.283 222.919 856.783 241.419 846.283C259.919 835.783 302.919 816.783 312.919 817.783C322.919 818.783 332.419 819.283 332.419 824.283C332.419 829.283 346.419 796.283 372.919 796.283C378.919 785.283 371.419 782.283 398.919 774.783C398.919 762.283 398.419 745.283 406.919 739.783C413.719 735.383 422.752 727.283 426.419 723.783" stroke="black" stroke-width="5"/>
</svg>
