<svg width="260" height="333" viewBox="0 0 260 333" fill="none" xmlns="http://www.w3.org/2000/svg">
<path d="M15.4182 293.945C12.4182 292.278 6.61818 287.045 7.41818 279.445C8.41818 269.945 5.91818 251.445 2.91818 246.945C-0.0818233 242.445 0.918177 207.945 13.4182 203.945C25.9182 199.945 31.4182 190.945 48.4182 195.445C65.4182 199.945 72.4182 202.445 76.4182 209.445C80.4182 216.445 91.4182 229.445 94.4182 226.945C97.4182 224.445 101.191 219.945 103.305 219.945M103.305 219.945C103.898 222.506 104.68 224.878 105.418 226.945C107.418 232.545 104.585 238.278 102.918 240.445C104.752 242.445 109.818 247.145 115.418 249.945C122.418 253.445 136.418 249.945 140.918 249.945C145.418 249.945 155.918 240.445 153.918 240.445C151.918 240.445 149.918 230.445 153.918 224.445C157.918 218.445 157.918 202.445 153.918 197.445C149.918 192.445 153.918 178.445 157.918 175.445C161.918 172.445 161.918 164.445 155.918 162.445C149.918 160.445 153.918 151.445 155.918 146.945C157.918 142.445 157.918 136.945 153.918 128.945C149.918 120.945 153.918 121.445 157.918 113.445C161.918 105.445 157.918 99.4449 155.918 97.9449C153.918 96.4449 151.918 85.9449 155.918 83.9449C159.918 81.9449 160.418 68.9449 157.918 68.9449C155.418 68.9449 155.918 57.4449 155.918 49.9449C155.918 42.4449 157.918 38.4449 155.918 38.4449C153.918 38.4449 152.918 26.9449 155.918 19.9449C158.918 12.9449 152.918 6.94488 149.418 3.44488C145.918 -0.0551236 124.918 1.94488 118.918 3.44488C112.918 4.94488 115.418 17.9449 118.918 19.9449C122.418 21.9449 122.418 31.9449 118.918 31.9449C115.418 31.9449 112.418 46.9449 115.418 49.9449C118.418 52.9449 118.918 66.9449 115.418 68.9449C112.618 70.5449 112.252 76.2782 112.418 78.9449C114.752 83.7782 118.618 93.7449 115.418 94.9449C111.418 96.4449 112.418 101.445 112.418 108.945C112.418 116.445 114.418 127.445 112.418 128.945C110.418 130.445 108.418 139.945 108.418 143.945C108.418 147.945 115.418 160.945 112.418 162.445C109.418 163.945 105.418 174.945 108.418 180.945C111.418 186.945 110.918 190.445 105.418 199.945C101.542 206.64 101.888 213.832 103.305 219.945Z" stroke="black" stroke-width="3"/>
<path d="M14.4182 293.445C16.2515 297.445 19.6182 305.845 18.4182 307.445C16.9182 309.445 16.9182 326.445 22.9182 326.945C28.9182 327.445 70.9182 335.445 69.9182 326.945C68.9182 318.445 58.4182 302.945 67.9182 295.945C77.4182 288.945 76.9182 282.945 81.9182 283.445C86.9182 283.945 87.4182 297.945 90.9182 301.445C94.4182 304.945 94.9182 312.945 98.4182 312.945C101.218 312.945 104.918 316.278 106.418 317.945H138.918C140.918 318.278 145.618 318.045 148.418 314.445C151.918 309.945 155.918 298.945 157.918 298.445C159.918 297.945 163.418 279.945 170.418 283.445C177.418 286.945 187.918 297.445 186.418 303.445C184.918 309.445 183.918 320.445 179.918 321.945C175.918 323.445 173.918 329.445 176.918 329.945C179.918 330.445 230.918 332.945 234.918 329.945C238.918 326.945 242.418 318.445 240.918 312.945C239.418 307.445 244.418 295.945 250.418 293.445C256.418 290.945 258.418 280.945 257.418 272.445C256.418 263.945 256.418 231.945 253.418 226.445C250.418 220.945 242.918 197.945 228.418 199.445C213.918 200.945 195.918 194.445 186.418 203.445C176.918 212.445 169.918 224.945 165.418 223.945C161.818 223.145 156.918 223.612 154.918 223.945" stroke="black" stroke-width="3"/>
<path d="M107.418 172.445C102.085 169.778 90.8182 165.045 88.4182 167.445C85.4182 170.445 84.9182 173.945 88.4182 175.445C91.9182 176.945 92.9182 182.445 95.9182 182.445C98.9182 182.445 109.918 183.445 110.418 185.945" stroke="black" stroke-width="2"/>
<path d="M104.418 201.945C99.9182 200.945 90.2182 199.245 87.4182 200.445C83.9182 201.945 80.9182 198.945 82.4182 202.945C83.9182 206.945 85.4182 209.945 87.4182 210.945C89.4182 211.945 96.9182 222.445 98.9182 221.945" stroke="black" stroke-width="2"/>
<path d="M109.418 141.945C105.418 140.445 96.7182 137.745 93.9182 138.945C90.4182 140.445 87.4182 144.945 88.9182 146.945C90.4182 148.945 92.9182 151.445 95.4182 150.945C97.9182 150.445 102.918 150.445 103.918 151.945C104.718 153.145 109.252 153.778 111.418 153.945" stroke="black" stroke-width="2"/>
<path d="M111.918 111.945L106.418 109.945C105.585 108.112 103.218 104.745 100.418 105.945C96.9182 107.445 91.9182 110.945 94.4182 112.945C96.9182 114.945 93.9182 116.945 97.9182 117.445C101.118 117.845 104.918 119.612 106.418 120.445L112.918 123.945" stroke="black" stroke-width="2"/>
<path d="M115.918 53.9449C113.585 53.9449 108.518 53.6449 106.918 52.4449C104.918 50.9449 102.418 45.9449 100.418 47.9449C98.4182 49.9449 93.9182 47.4449 94.4182 51.4449C94.9182 55.4449 92.4182 58.9449 95.4182 59.4449C98.4182 59.9449 96.4182 64.9449 100.418 63.4449C104.418 61.9449 107.918 61.4449 108.418 62.4449C108.818 63.2449 112.585 64.7782 114.418 65.4449H116.918" stroke="black" stroke-width="2"/>
<path d="M156.418 52.9449C158.918 52.9449 164.418 52.9449 166.418 52.9449C168.918 52.9449 174.918 55.9449 176.918 57.4449C178.918 58.9449 183.418 60.4449 184.418 58.9449C185.418 57.4449 190.918 62.9449 188.418 65.4449C185.918 67.9449 186.918 73.9449 181.918 72.4449C176.918 70.9449 172.418 76.4449 170.918 71.9449C169.418 67.4449 166.418 65.4449 164.918 65.9449C163.718 66.3449 159.418 66.7782 157.418 66.9449" stroke="black" stroke-width="2"/>
<path d="M154.918 85.4449C159.252 85.2782 167.918 85.4449 167.918 87.4449C167.918 89.9449 169.918 92.4449 166.918 92.9449C164.518 93.3449 156.918 93.7782 153.418 93.9449" stroke="black" stroke-width="2"/>
<path d="M156.418 113.445C160.085 112.112 168.118 109.745 170.918 110.945C174.418 112.445 176.418 115.445 175.418 116.945C174.418 118.445 173.918 122.445 170.418 121.945C166.918 121.445 161.418 120.945 159.918 121.945C158.418 122.945 154.418 123.445 153.918 125.445" stroke="black" stroke-width="2"/>
<path d="M156.418 140.445C161.085 139.445 170.818 137.745 172.418 138.945C174.418 140.445 177.918 138.445 177.418 141.945C176.918 145.445 178.418 147.445 176.418 148.445C174.418 149.445 173.418 151.445 168.918 150.945C164.418 150.445 162.418 150.945 159.918 152.445C157.418 153.945 151.418 156.445 151.918 157.945" stroke="black" stroke-width="2"/>
<path d="M158.418 174.945C162.252 172.945 170.418 169.445 172.418 171.445C174.918 173.945 177.418 175.945 173.918 178.445C170.418 180.945 167.418 182.945 164.918 183.445C162.418 183.945 152.918 185.945 152.418 187.445" stroke="black" stroke-width="2"/>
<path d="M156.418 204.445C161.918 203.612 173.118 202.545 173.918 204.945C174.918 207.945 175.918 209.445 172.918 212.445C169.918 215.445 169.418 218.445 164.918 218.945C161.318 219.345 157.752 220.112 156.418 220.445" stroke="black" stroke-width="2"/>
<path d="M121.918 21.9449C125.752 21.9449 134.218 21.9449 137.418 21.9449C141.418 21.9449 153.918 23.4449 154.418 21.9449" stroke="black"/>
<path d="M122.418 29.4449C125.252 28.4449 131.818 26.7449 135.418 27.9449C139.918 29.4449 152.918 29.9449 153.418 28.9449" stroke="black"/>
<path d="M115.418 47.9449C121.418 48.7782 133.818 50.3449 135.418 49.9449C137.418 49.4449 147.918 48.9449 148.918 48.9449C149.918 48.9449 154.918 48.9449 155.418 49.9449" stroke="black"/>
<path d="M117.918 52.9449C121.918 53.6116 130.318 54.7449 131.918 53.9449C133.918 52.9449 141.918 52.9449 143.418 53.9449C144.618 54.7449 152.252 54.9449 155.918 54.9449" stroke="black"/>
<path d="M112.918 77.4449C117.585 77.7782 127.218 78.4449 128.418 78.4449C129.918 78.4449 137.418 80.4449 140.918 79.4449C143.718 78.6449 153.418 78.4449 157.918 78.4449" stroke="black"/>
<path d="M114.418 82.9449C117.418 82.6115 123.818 82.1449 125.418 82.9449C127.418 83.9449 136.918 84.9449 139.918 83.9449C142.318 83.1449 151.585 83.6116 155.918 83.9449" stroke="black"/>
<path d="M112.918 109.945C116.585 110.278 124.218 110.745 125.418 109.945C126.918 108.945 140.918 109.445 141.918 110.445C142.918 111.445 151.418 109.945 153.418 109.945C155.018 109.945 157.418 109.945 158.418 109.945" stroke="black"/>
<path d="M114.418 114.445C116.418 113.778 121.218 112.645 124.418 113.445C128.418 114.445 136.418 115.445 139.418 114.445C142.418 113.445 156.418 113.445 156.918 114.445" stroke="black"/>
<path d="M109.918 140.445C112.752 139.778 119.218 138.845 122.418 140.445C126.418 142.445 133.418 144.445 136.918 142.445C140.418 140.445 146.918 142.445 148.918 142.445C150.518 142.445 153.918 142.445 155.418 142.445" stroke="black"/>
<path d="M110.918 149.445C113.752 148.445 120.018 146.745 122.418 147.945C125.418 149.445 133.418 149.445 136.418 149.445C139.418 149.445 153.918 149.445 154.418 150.445" stroke="black"/>
<path d="M108.418 174.445C112.418 175.445 120.718 177.345 121.918 176.945C123.418 176.445 135.418 177.945 136.918 178.445C138.418 178.945 142.918 180.445 146.418 179.445C149.218 178.645 154.585 177.445 156.918 176.945" stroke="black"/>
<path d="M110.918 182.945C115.752 183.778 125.718 185.445 126.918 185.445C128.418 185.445 136.918 185.445 138.918 185.445C140.918 185.445 152.918 185.945 152.918 186.945" stroke="black"/>
<path d="M104.418 205.445C105.918 207.112 109.718 210.345 112.918 209.945C116.918 209.445 130.918 212.445 131.918 211.945C132.918 211.445 145.418 211.945 146.918 211.945C148.118 211.945 154.085 210.612 156.918 209.945" stroke="black"/>
<path d="M103.418 214.445C106.752 216.112 113.818 219.245 115.418 218.445C117.018 217.645 125.085 219.445 128.918 220.445H143.418L154.918 217.445" stroke="black"/>
<path d="M105.918 237.445C108.252 239.278 113.418 242.945 115.418 242.945C117.418 242.945 127.585 243.945 132.418 244.445C135.918 243.778 143.318 242.345 144.918 241.945C146.918 241.445 151.918 237.445 152.418 237.445" stroke="black"/>
<path d="M13.9182 212.945C13.9182 216.778 13.9182 225.245 13.9182 228.445C13.9182 231.645 15.9182 238.112 16.9182 240.945C17.4182 244.945 18.1182 253.645 16.9182 256.445C15.4182 259.945 16.9182 267.445 16.9182 269.445C16.9182 271.445 21.9182 279.445 19.4182 281.945C17.4182 283.945 16.2515 291.112 15.9182 294.445" stroke="black"/>
<path d="M77.9182 212.945C76.9182 218.278 75.2182 229.545 76.4182 231.945C77.9182 234.945 76.9182 239.945 74.4182 242.445C71.9182 244.945 68.9182 245.445 69.4182 251.445C69.9182 257.445 66.4182 265.945 71.4182 269.445C76.4182 272.945 82.4182 279.445 83.4182 279.445" stroke="black"/>
<path d="M67.9182 296.445C66.5848 292.278 64.7182 283.645 67.9182 282.445" stroke="black"/>
<path d="M84.4182 268.945C88.0848 264.445 97.1182 255.645 103.918 256.445C110.718 257.245 119.418 258.778 122.918 259.445" stroke="black"/>
<path d="M141.418 261.445C143.752 259.112 149.918 255.845 155.918 261.445C161.918 267.045 169.418 275.112 172.418 278.445" stroke="black"/>
<path d="M175.418 278.945C178.752 275.778 185.218 267.545 184.418 259.945C183.618 252.345 180.418 243.778 178.918 240.445C177.085 236.112 174.218 227.045 177.418 225.445" stroke="black"/>
<path d="M238.418 224.445C240.752 230.278 245.318 242.945 244.918 246.945C244.418 251.945 241.418 273.945 244.918 275.445" stroke="black"/>
<path d="M249.918 226.945C248.918 231.445 246.618 241.245 245.418 244.445" stroke="black"/>
<path d="M87.9182 276.945C91.4182 273.278 99.6182 265.845 104.418 265.445C110.418 264.945 117.918 260.445 122.918 261.945" stroke="black"/>
<path d="M134.418 263.445C137.252 263.112 143.618 263.345 146.418 266.945" stroke="black"/>
<path d="M110.418 275.445C111.085 276.778 113.618 279.345 118.418 278.945C124.418 278.445 133.918 282.445 137.418 278.945C140.918 275.445 139.918 271.445 145.418 273.445C150.918 275.445 160.918 274.945 162.918 276.945" stroke="black"/>
<path d="M89.4182 286.945C93.0848 286.945 101.118 286.945 103.918 286.945C107.418 286.945 113.418 291.445 113.918 294.445C114.418 297.445 121.418 300.445 126.918 298.945C132.418 297.445 138.418 297.445 139.418 292.945C140.418 288.445 142.418 283.945 148.418 285.445C153.218 286.645 158.418 286.945 160.418 286.945" stroke="black"/>
<path d="M100.418 302.945C101.752 301.778 105.318 300.545 108.918 304.945C113.418 310.445 116.918 310.945 118.918 310.945" stroke="black"/>
<path d="M127.918 310.945C131.085 310.945 137.718 309.745 138.918 304.945C140.118 300.145 147.085 301.612 150.418 302.945" stroke="black"/>
<path d="M121.918 265.445C124.085 265.945 129.118 266.945 131.918 266.945" stroke="black"/>
</svg>
