<svg width="347" height="444" viewBox="0 0 347 444" fill="none" xmlns="http://www.w3.org/2000/svg">
<path d="M212 373C213.333 369 215.2 360.7 212 359.5C208.8 358.3 205.667 358.333 204.5 358.5" stroke="black" stroke-width="2"/>
<path d="M208 350C211.833 350.167 219.4 351.6 219 356C218.6 360.4 218.833 366.5 219 369" stroke="black" stroke-width="2"/>
<path d="M223 344C228 343.167 236.5 345.2 230.5 360" stroke="black" stroke-width="2"/>
<path d="M223.5 344H208.5" stroke="black" stroke-width="2"/>
<path d="M212.5 333.5C217.833 333.167 229.2 333.5 232 337.5C235.5 342.5 237 343.5 236.5 348.5" stroke="black" stroke-width="2"/>
<path d="M217.5 324C221.333 323.833 229.4 323.9 231 325.5C233 327.5 240 329.5 239 336.5" stroke="black" stroke-width="2"/>
<path d="M236 315C232.5 324.833 224.5 344.5 220.5 344.5" stroke="black" stroke-width="2"/>
<path d="M144.5 380.5C142.5 380.5 138.9 383.3 140.5 394.5" stroke="black"/>
<path d="M200.5 379.5C203 379.5 207.4 382.3 205 393.5" stroke="black"/>
<path d="M88.5 324.5C87.3333 334 86.6 354.7 93 361.5" stroke="black"/>
<path d="M227 373C231.333 377.833 237.9 388.8 229.5 394" stroke="black"/>
<path d="M111.5 371C111.833 372.667 111.7 376.6 108.5 379C104.5 382 104 382 103.5 389" stroke="black"/>
<path d="M96 207C103.833 203.333 117.7 203.8 110.5 235" stroke="black"/>
<path d="M251.5 205C243.667 197.167 226.1 187.3 218.5 210.5" stroke="black"/>
<path d="M114 320C114 324 114.6 332.1 117 332.5C119.4 332.9 122 340.333 123 344C125.667 345.833 130.9 350.3 130.5 353.5" stroke="black" stroke-width="2"/>
<path d="M136.5 376C134 370.333 130.5 359.2 136.5 360C142.5 360.8 143.667 360.333 143.5 360" stroke="black" stroke-width="2"/>
<path d="M128 371.5C125 365.333 121.9 353.1 133.5 353.5C145.1 353.9 142.333 353.667 139.5 353.5" stroke="black" stroke-width="2"/>
<path d="M117.5 361.5C113.833 356.333 108.9 345.7 118.5 344.5C128.1 343.3 134.5 344 136.5 344.5" stroke="black" stroke-width="2"/>
<path d="M107.5 343.5C106.167 340 105.3 332.9 112.5 332.5C119.7 332.1 128.167 333 131.5 333.5" stroke="black" stroke-width="2"/>
<path d="M158.5 384C163.833 380.167 177.3 374.8 188.5 384C199 382.5 201.5 377.5 206 376.5C210.5 375.5 234 357.5 234.5 356C234.9 354.8 238.667 338.833 240.5 331" stroke="black" stroke-width="2"/>
<path d="M103.5 323.5C104.167 334.167 107.2 356.3 114 359.5C122.5 363.5 126 368 128.5 372.5C134.5 376.5 124.5 370 144 380C146 380 149.5 377 159 384" stroke="black" stroke-width="2"/>
<path d="M156.5 128.5C162.167 121.167 176 110.9 186 128.5" stroke="black" stroke-width="2"/>
<path d="M238 317C240 322.667 244 335.3 244 340.5C244 347 267.5 238.5 266 237" stroke="black" stroke-width="5"/>
<path d="M147.5 366.5C161.333 368.833 191.3 371.4 200.5 363C205.5 352.5 214 320 221 317.5C228 315 238 314.5 240.5 317.5" stroke="black" stroke-width="5"/>
<path d="M164 376.5C165.333 378.667 168.6 381.7 171 376.5C173.4 371.3 172.667 369 172 368.5" stroke="black" stroke-width="2"/>
<path d="M173.5 368.5C174 372.667 175.7 380.7 178.5 379.5C181.3 378.3 183.667 372.667 184.5 370" stroke="black" stroke-width="2"/>
<path d="M146 364C143.833 364.167 140 366.1 142 372.5C142 377.7 142.667 380 143 380.5C145.833 379.333 151.5 376.4 151.5 374" stroke="black" stroke-width="2"/>
<path d="M202.5 363.5C203.5 368 204.9 377.4 202.5 379C199 378 195 374.5 195 372" stroke="black" stroke-width="2"/>
<path d="M172.5 240.5C157.7 222.5 148 235.667 145 244.5C143.625 247.7 146.094 256.167 147.5 260L172.5 258M172.5 240.5C172.5 248.1 172.5 255.333 172.5 258M172.5 240.5C176 234 186 224.9 198 240.5M172.5 258L198 260C199.333 256.167 201.2 246.9 198 240.5M198 240.5L210.5 234L212.5 247M212.5 247L220 240.5L223.5 255M212.5 247C213.167 252.667 213.7 264.7 210.5 267.5M223.5 255C226.167 255.333 231.4 256.4 231 258C230.5 260 241 259.5 240 264C239.2 267.6 243 265.5 245 264V284L231 288.5L217 274.5C220.333 270.667 226.3 261.4 223.5 255ZM207.5 165C200.167 159.333 187.7 144.9 196.5 132.5C207.5 117 222 109 225.5 109C229 109 273 122.5 275.5 137C278 151.5 287.5 171 281.5 180C275.5 189 249 197.5 220 182C208 172 206.667 166.5 207.5 165ZM71 129.5C80 121.5 102.8 106.5 122 110.5C140.5 120 150 126.5 149 139C148 151.5 133.5 174 124 177C114.5 180 87.5 200.5 61.5 183.5C64 171.5 60 151.5 65.5 140.5C67.9 136.5 70.1667 131.5 71 129.5ZM142 197.5C148.167 177.333 162.6 137 171 137C171 144.6 172 178.167 172.5 194C169.167 195 162.7 198.6 163.5 205C157.5 207 160 210 153.5 205C147 200 142 201 142 197.5ZM189.5 205C195.5 205 206.4 202.2 202 191C197.6 179.8 184.833 154.333 179 143C178.662 140.333 177.288 135.4 174.5 137C171.015 139 175 188 176 194C176.8 198.8 185.333 203.333 189.5 205Z" stroke="black" stroke-width="5"/>
<path d="M133 246C133.667 239 136.9 228.5 144.5 242.5" stroke="black" stroke-width="5"/>
<path d="M121.5 252.5C120.833 246.5 122.3 236.3 133.5 243.5" stroke="black" stroke-width="5"/>
<path d="M285.5 78C247.5 27.6 197 14.3333 176.5 14H165.5C137 19 122.5 28 106 35C82 41.8 61 76.5 53.5 93C51.3333 103.333 47 125.8 47 133C40.6 135.8 39 144.5 39 148.5C37.5 158 34.5 179.1 34.5 187.5C39.5 210.5 37 210.5 37 218C41.4 242.4 50.8333 244.833 55 243C66.6667 238.167 91.4 230.9 97 240.5C104 252.5 101 259 101 271C98.5 281.5 100.5 287.5 109.5 287.5C114 295 122 283.5 130.5 274.5C138.1 271.3 136 267.833 134 266.5C135.667 266.5 140.7 265.3 147.5 260.5C158.5 260.5 166.5 260.5 173.5 257C192 264 199.5 258.5 200.5 260.5C201.5 262.5 209 265 209 266.5C209 268 210 273 215.5 274.5C213.5 278.5 222.5 283.5 229 287.5C234.2 290.7 242.833 286.167 246.5 283.5V246C249.167 241 258.2 232.4 273 238C287.8 243.6 296.5 242 299 240.5C300.667 236.167 304.8 225.1 308 215.5C307 207.5 309 199.5 311.5 189.5C307 128 300.5 134.5 299 133C300.5 122.5 288.5 84 285.5 78Z" stroke="black" stroke-width="5"/>
<path d="M133.5 242.5L136 267" stroke="black" stroke-width="5"/>
<path d="M130.5 275C126.333 268.5 118.8 254.1 122 248.5" stroke="black" stroke-width="5"/>
<path d="M102 266.5C106.333 261.667 116.2 252.4 121 254" stroke="black" stroke-width="5"/>
<path d="M74 239.5C77.6667 270.167 83.9 336.3 79.5 355.5C89.5 373.5 80.5 361.5 91.5 377.5C102.5 393.5 128.5 437.5 141 435.5C153.5 433.5 177 430.5 202.5 435.5C208.5 435.5 250.5 397.5 249.5 387.5C251.1 377.5 258.167 371.667 261.5 370C263.667 347.5 269.4 300.8 275 294C282 285.5 281.5 261 292.5 243.5" stroke="black" stroke-width="5"/>
<path d="M79 237.5C83 274 93 345 101 337C101 329 103 317 107.5 317C111.1 317 122.333 317 127.5 317C133.5 337 143 365.5 149 365.5" stroke="black" stroke-width="5"/>
<path d="M147 215C144 220.667 139.4 233.8 145 241" stroke="black" stroke-width="2"/>
<path d="M136.5 217.5C135 220.333 132.3 229.4 133.5 243" stroke="black" stroke-width="2"/>
<path d="M173 238.5C173.667 227.667 174.6 205.2 173 202" stroke="black" stroke-width="2"/>
<path d="M199 214.5C202.5 218.167 209.6 227.5 210 235.5" stroke="black" stroke-width="2"/>
<path d="M224.5 226.5C228.333 234.667 235.3 252.1 232.5 256.5" stroke="black" stroke-width="2"/>
<path d="M122 227.5C117.667 233 110.5 246.4 116.5 256" stroke="black" stroke-width="2"/>
<path d="M142.5 176C136.5 186 126.8 207.2 136 212" stroke="black" stroke-width="2"/>
<path d="M202.5 177C208.667 186.667 218.8 207.6 210 214" stroke="black" stroke-width="2"/>
<path d="M57 108C59.8333 115 63.8 131 57 139C54.5 152 54 178 45.5 185.5" stroke="black" stroke-width="2"/>
<path d="M289 108.5C286.833 114.5 283.4 128.1 287 134.5C289 143 291 167 302.5 198.5" stroke="black" stroke-width="2"/>
<path d="M164 375.5C159.6 389.1 154.5 381.167 152.5 375.5C151.7 375.5 149.833 369.833 149 367L161.5 368L164 375.5Z" stroke="black" stroke-width="2"/>
<path d="M196 366C194.333 373.167 190.3 386.8 187.5 384C184.7 381.2 183 379.167 182.5 378.5C182.333 375.333 183.1 368.8 187.5 368" stroke="black" stroke-width="2"/>
</svg>
